<svg width="158" height="46" viewBox="0 0 158 46" fill="none" xmlns="http://www.w3.org/2000/svg">
<path d="M7.52449 36.977L6.99272 36.7895C6.87573 36.7491 6.75343 36.7197 6.63644 36.6719C6.42905 36.5911 6.22166 36.4992 6.01427 36.411C5.82988 36.3433 5.65223 36.2671 5.48251 36.1831C5.27512 36.0765 5.07836 35.9442 4.87629 35.8156C4.67422 35.6869 4.52533 35.6208 4.34453 35.5068C3.93087 35.2314 3.55524 34.93 3.2225 34.6064C2.97789 34.3712 2.72796 34.1396 2.50462 33.8713C2.28128 33.603 2.09516 33.3494 1.88777 33.0775C1.7761 32.9341 1.67506 32.7871 1.57403 32.6364C1.47299 32.4858 1.39323 32.3681 1.31346 32.2322C1.19116 32.0116 1.06353 31.7911 0.946543 31.5633C0.898684 31.4677 0.872096 31.3611 0.834872 31.2619C0.797649 31.1626 0.765743 31.0855 0.728519 30.9973C0.643437 30.7841 0.547719 30.5709 0.467954 30.3578C0.420095 30.2254 0.393507 30.0931 0.356283 29.9572C0.297789 29.7366 0.244612 29.5161 0.186118 29.2956C0.186118 29.2699 0.186118 29.2441 0.186118 29.2184C0.143577 28.8509 0.0904002 28.5091 0.0584942 28.1526C0.0265883 27.7961 0 27.3734 0 26.9838C0 26.5943 0 26.2892 0.0638119 25.9474C0.127624 25.6056 0.191436 25.2528 0.271201 24.911C0.31906 24.6868 0.388189 24.4663 0.462636 24.2568C0.537084 24.0473 0.648754 23.7349 0.755108 23.4813C0.861461 23.2277 0.989085 22.941 1.13266 22.6874C1.33473 22.3419 1.57934 22.0185 1.7761 21.6694C1.88039 21.4936 2.02592 21.3309 2.20683 21.1879C2.27693 21.1178 2.37752 21.0651 2.49398 21.0372C2.71732 21.0115 2.91939 20.8718 3.15337 20.938C3.56914 21.0396 3.90957 21.2511 4.09991 21.526C4.33 21.8587 4.39899 22.2337 4.29667 22.5955C4.19658 22.849 4.06123 23.0952 3.89253 23.3306C3.74653 23.5314 3.62556 23.7404 3.53093 23.9554C3.47775 24.1245 3.35544 24.2678 3.281 24.4295C3.20655 24.5912 3.20123 24.661 3.15869 24.797C3.11615 24.933 3.0417 25.1131 2.99384 25.2711C2.94598 25.4292 2.90876 25.5505 2.88217 25.6938C2.83431 25.9989 2.83431 26.3113 2.74923 26.6053C2.66705 27.0144 2.651 27.4286 2.70137 27.8402C2.72418 28.1634 2.77926 28.4851 2.86622 28.8031C2.94598 29.1302 3.04702 29.45 3.14805 29.7734C3.20629 29.9742 3.27906 30.173 3.36608 30.3688C3.45366 30.5636 3.55662 30.7551 3.6745 30.9421C3.81808 31.1773 3.96697 31.4089 4.13182 31.6294C4.29667 31.8499 4.53065 32.1256 4.74867 32.3645C4.91136 32.5441 5.08891 32.7172 5.28044 32.8827C5.4683 33.041 5.66892 33.192 5.88133 33.3347C6.09429 33.4787 6.31793 33.6148 6.55136 33.7427C6.72071 33.8383 6.89829 33.9266 7.08312 34.0073C7.27987 34.0992 7.48195 34.1837 7.68402 34.2683C7.78903 34.3116 7.89936 34.3485 8.01371 34.3785C8.21479 34.4065 8.4122 34.4458 8.60397 34.4961C8.9124 34.6101 9.24209 34.5329 9.53988 34.6101C9.81849 34.6627 10.1092 34.6777 10.396 34.6542C10.7026 34.6445 11.0062 34.6087 11.3 34.5476C11.4837 34.5104 11.6617 34.4612 11.8318 34.4006C11.8617 34.3969 11.8923 34.3969 11.9222 34.4006C12.139 34.3789 12.3431 34.3166 12.5125 34.2205C12.6294 34.1617 12.773 34.1507 12.89 34.0955C13.1453 33.9816 13.4218 33.8603 13.6504 33.728C13.8845 33.6102 14.1033 33.4786 14.3045 33.3347C14.6131 33.1142 14.9042 32.8824 15.1766 32.6401C15.5597 32.2997 15.8845 31.9297 16.1444 31.5375C16.2933 31.317 16.4635 31.1149 16.5964 30.8907C16.6921 30.7326 16.7453 30.5525 16.8251 30.3835C16.9048 30.2144 17.0059 30.016 17.0803 29.8322C17.1548 29.6484 17.2292 29.4059 17.2824 29.189C17.3356 28.9722 17.4153 28.6487 17.4685 28.3768C17.4819 28.2422 17.4819 28.1071 17.4685 27.9725C17.4685 27.4138 17.4685 26.8699 17.4685 26.2929C17.4436 26.1141 17.3973 25.9371 17.3303 25.7636C17.3303 25.7195 17.3303 25.6754 17.3037 25.6277C17.282 25.4233 17.2212 25.2219 17.1229 25.0286C17.075 24.933 17.0644 24.8154 17.0218 24.7125C16.9048 24.4479 16.7719 24.1869 16.6549 23.9223C16.4674 23.5308 16.2326 23.1509 15.953 22.7866C15.8937 22.707 15.828 22.6297 15.7562 22.5551C15.5701 22.3566 15.3893 22.1471 15.1872 21.9634C14.9852 21.7796 14.7086 21.5628 14.464 21.3753C14.2547 21.2231 14.0309 21.0806 13.794 20.949C13.5764 20.8333 13.3491 20.7265 13.1133 20.6292C12.9219 20.5447 12.7358 20.4528 12.539 20.3793C12.3915 20.3258 12.2365 20.2827 12.0764 20.2507C11.8425 20.2225 11.6129 20.1795 11.3904 20.1221C11.1335 20.0701 10.8922 19.9867 10.6779 19.8758C10.4721 19.7271 10.3128 19.5507 10.2099 19.3576C10.0667 19.117 10.0119 18.8556 10.0504 18.5968C10.0947 18.3963 10.1677 18.1993 10.2684 18.0088C10.3482 17.8395 10.5002 17.6909 10.7044 17.5824C10.7983 17.5204 10.9136 17.476 11.0395 17.4538C11.3385 17.4373 11.6391 17.4373 11.9381 17.4538C12.1233 17.4618 12.3041 17.4955 12.4699 17.553C12.6933 17.6339 12.9272 17.6706 13.1453 17.7478C13.5853 17.9102 14.0131 18.0881 14.4268 18.2807C14.658 18.3806 14.8816 18.4885 15.0968 18.6042C15.2245 18.674 15.3361 18.7769 15.4638 18.8578C15.5914 18.9386 15.7881 19.0452 15.9423 19.1591C16.2685 19.3922 16.5756 19.6376 16.8623 19.8942C17.2098 20.2143 17.5329 20.5468 17.8301 20.8902C18.1522 21.2501 18.428 21.6289 18.6543 22.0222C18.7926 22.2758 18.9681 22.5073 19.1117 22.7572C19.1967 22.9153 19.2446 23.0954 19.3191 23.2608C19.3935 23.4261 19.5052 23.6283 19.5903 23.8121C19.6314 23.9122 19.6634 24.0141 19.686 24.1171C19.7657 24.4185 19.8242 24.7272 19.9199 25.0212C20.0476 25.3888 20.0529 25.7967 20.1273 26.1789C20.2076 26.8218 20.2343 27.4672 20.2071 28.1122C20.2001 28.4297 20.161 28.7466 20.0901 29.0604C20.0263 29.3838 19.9199 29.7036 19.8349 30.0196C19.7657 30.2622 19.7019 30.5084 19.6168 30.7547C19.5318 31.0009 19.4414 31.1222 19.3563 31.317C19.2712 31.5118 19.2233 31.6845 19.1383 31.8352C19.0159 32.0741 18.8777 32.313 18.7341 32.5372C18.5533 32.8239 18.3566 33.1032 18.1545 33.3788C18.0641 33.5038 17.9258 33.5957 17.8354 33.7243C17.5376 34.1123 17.1906 34.4813 16.7985 34.8269C16.5565 35.0458 16.2898 35.251 16.0008 35.4407C15.9679 35.4673 15.9498 35.5012 15.9498 35.5362C15.9498 35.5713 15.9679 35.6052 16.0008 35.6318C16.2508 35.8339 16.5007 36.0287 16.7294 36.2529C16.9266 36.4604 17.1042 36.6765 17.2611 36.8998C17.3865 37.0844 17.4983 37.2733 17.5961 37.4658C17.6865 37.6201 17.7769 37.7782 17.8514 37.9399C17.9258 38.1016 17.9311 38.1825 17.9737 38.3074C18.0162 38.4324 18.0854 38.5941 18.1385 38.7374C18.1436 38.7581 18.1436 38.7792 18.1385 38.7999C18.1758 39.1674 18.2077 39.5019 18.2502 39.8547C18.2867 39.9687 18.3133 40.084 18.33 40.2002C18.33 40.5163 18.2715 40.8323 18.2343 41.1447C18.2343 41.3212 18.1811 41.5123 18.1385 41.6666C18.0995 41.7798 18.0516 41.8915 17.995 42.0011C17.9919 42.0243 17.9919 42.0477 17.995 42.0709C17.9311 42.2363 17.878 42.4091 17.8035 42.5708C17.7291 42.7325 17.6174 42.975 17.5057 43.1662C17.3519 43.4273 17.1743 43.6814 16.974 43.9269C16.8191 44.131 16.6413 44.3264 16.4422 44.5113C16.2189 44.7024 15.9742 44.8789 15.735 45.0516C15.5543 45.1819 15.3626 45.3047 15.1606 45.4191C15.0497 45.4696 14.93 45.5104 14.8044 45.5404L14.5438 45.6396C14.4014 45.7049 14.2521 45.7627 14.0971 45.8124C13.9096 45.8711 13.7108 45.9107 13.5069 45.93C13.0572 45.9715 12.6044 45.9948 12.1509 45.9998C11.8163 45.9839 11.4859 45.9395 11.1671 45.8675C10.9249 45.8246 10.6923 45.7591 10.4758 45.6727C10.2365 45.5772 10.0185 45.4301 9.77917 45.3346C9.46285 45.2025 9.18067 45.0348 8.9443 44.8384C8.66314 44.6051 8.40382 44.3596 8.16792 44.1034C7.94458 43.8718 7.74251 43.6219 7.54576 43.3683C7.45857 43.2308 7.38398 43.0896 7.32242 42.9456C7.23733 42.795 7.14693 42.6443 7.06185 42.4899C7.01931 42.4054 6.9874 42.3135 6.9555 42.2216C6.92359 42.1297 6.87042 41.9313 6.82787 41.7843C6.78533 41.6372 6.70557 41.4167 6.66834 41.2183C6.63827 41.0377 6.62406 40.8561 6.6258 40.6743C6.6258 40.2002 6.6258 39.7298 6.65771 39.2556C6.68318 39.0842 6.72943 38.9145 6.79597 38.7485C6.79852 38.7191 6.79852 38.6896 6.79597 38.6603C6.85978 38.4691 6.91827 38.2927 6.99272 38.0869C7.08844 37.8443 7.20011 37.6091 7.31178 37.3739C7.35432 37.2857 7.43409 37.2122 7.48195 37.1277C7.50337 37.0785 7.51762 37.028 7.52449 36.977ZM15.5542 40.2076C15.5786 39.9017 15.5554 39.5949 15.485 39.2924C15.3893 39.0756 15.2989 38.8587 15.1872 38.6492C15.0231 38.3157 14.7585 38.0101 14.4109 37.7525C14.2002 37.5739 13.9398 37.4264 13.6451 37.3188C13.5388 37.2894 13.4377 37.2342 13.3261 37.2085C13.0897 37.1444 12.846 37.094 12.5975 37.0578C12.3732 37.0402 12.146 37.063 11.9381 37.124C11.6966 37.1749 11.4632 37.2426 11.2415 37.3261C10.8537 37.4933 10.5176 37.7119 10.2524 37.9693C10.0099 38.1935 9.81641 38.4412 9.67814 38.7044C9.55937 38.9218 9.47382 39.1472 9.42289 39.3769C9.35032 39.6477 9.30413 39.9215 9.28463 40.1965C9.28463 40.3509 9.33781 40.5089 9.34844 40.6633C9.38485 40.9943 9.49054 41.3199 9.66219 41.6299C9.7842 41.8831 9.9637 42.1213 10.194 42.3355C10.3694 42.4899 10.5449 42.6479 10.7257 42.795C10.9078 42.9276 11.1291 43.0316 11.3745 43.1C11.5385 43.1727 11.7179 43.2272 11.9062 43.2617C12.2374 43.2764 12.5695 43.2764 12.9006 43.2617C12.9996 43.2661 13.0989 43.2574 13.1931 43.236C13.3312 43.1884 13.4645 43.1344 13.5919 43.0743C13.7715 43.0188 13.9396 42.9471 14.0918 42.8611C14.3081 42.7213 14.5024 42.5661 14.6714 42.398C14.9458 42.1428 15.1544 41.8569 15.2883 41.5527C15.3202 41.4608 15.368 41.3726 15.3999 41.2807C15.4712 41.1462 15.5228 41.0071 15.5542 40.8654C15.5754 40.667 15.5542 40.4281 15.5542 40.2076Z" fill="#131313"/>
<path d="M17.7184 8.96405C17.9789 9.13311 18.2501 9.08901 18.4948 9.25807C18.5113 9.2738 18.5361 9.28437 18.5639 9.28747C18.7652 9.3167 18.9499 9.38563 19.0957 9.48594C19.2499 9.56679 19.4307 9.6109 19.5849 9.69176C19.7391 9.77261 19.9677 9.92697 20.1592 10.0409C20.2389 10.0887 20.324 10.1218 20.4038 10.1659C20.4836 10.21 20.6803 10.3239 20.8079 10.4121C21.026 10.5554 21.244 10.7025 21.4514 10.8605C21.5737 10.945 21.6641 11.0737 21.7917 11.1435C21.9833 11.2935 22.1509 11.4574 22.2916 11.6323C22.5081 11.8225 22.7003 12.0254 22.8659 12.2387C23.1105 12.5511 23.3338 12.8819 23.5678 13.2053C23.6795 13.356 23.8018 13.4994 23.9135 13.6537C23.9578 13.7317 23.9951 13.8115 24.0251 13.8926C24.0943 14.0507 24.1581 14.2087 24.2325 14.3667C24.3389 14.5946 24.4612 14.8151 24.5569 15.0503C24.6313 15.2194 24.6686 15.3995 24.7271 15.5759C24.8121 15.8258 24.9025 16.0757 24.9929 16.311C24.9929 16.311 24.9929 16.333 24.9929 16.3404C25.0248 16.6123 25.0567 16.8806 25.094 17.1526C25.1259 17.3694 25.1844 17.5826 25.1897 17.7995C25.1897 18.4316 25.2216 19.0711 25.1897 19.6996C25.1881 19.946 25.1561 20.192 25.094 20.4346C25.0408 20.6041 25.0071 20.7761 24.9929 20.9492C24.9702 21.0253 24.94 21.1002 24.9025 21.1734C24.8494 21.3314 24.7962 21.4968 24.7377 21.6585C24.7347 21.683 24.7347 21.7076 24.7377 21.732C24.6878 21.9742 24.5949 22.2112 24.4612 22.4377C24.3692 22.6936 24.2538 22.9453 24.1155 23.1911C23.9826 23.441 23.8284 23.6799 23.6795 23.9262C23.5835 24.0958 23.4734 24.2615 23.3498 24.4223C23.2329 24.5829 23.0679 24.7245 22.8659 24.8376C22.7504 24.9049 22.6142 24.9531 22.4677 24.9786C22.3212 25.0041 22.1682 25.0062 22.0204 24.9847C21.823 24.9482 21.6399 24.8818 21.4844 24.7903C21.329 24.6987 21.205 24.5843 21.1217 24.4554C20.9473 24.2556 20.869 24.0227 20.8983 23.7902C20.9117 23.7121 20.9117 23.6331 20.8983 23.555C20.8777 23.3954 20.9161 23.2347 21.01 23.0882C21.1217 22.8934 21.2546 22.7207 21.3716 22.5149C21.4886 22.309 21.5737 22.1473 21.6747 21.9599C21.7758 21.7725 21.8555 21.6512 21.93 21.4858C22.0044 21.3204 22.0789 21.1182 22.1427 20.9198C22.2065 20.7213 22.2703 20.4934 22.3341 20.2803C22.3341 20.2803 22.3341 20.2803 22.3341 20.2509C22.366 19.9495 22.3766 19.6408 22.4511 19.3468C22.5163 19.0649 22.5395 18.7792 22.5202 18.4941C22.5203 18.2095 22.4847 17.9254 22.4139 17.6451C22.3554 17.4613 22.3766 17.2776 22.3341 17.1085C22.2916 16.9394 22.2171 16.7042 22.1533 16.5058C22.0895 16.3073 22.0257 16.0757 21.9406 15.8736C21.8555 15.6715 21.7279 15.4546 21.6162 15.2451C21.563 15.1459 21.5152 15.043 21.462 14.9438C21.4088 14.8445 21.3344 14.7122 21.2599 14.6056C21.1855 14.499 21.0313 14.3006 20.9037 14.1536C20.7282 13.9441 20.558 13.7309 20.3719 13.5361C20.1728 13.3281 19.9543 13.1292 19.7178 12.9407C19.5629 12.8037 19.3843 12.6803 19.1861 12.5732C19.0105 12.4748 18.8436 12.3692 18.6862 12.2571C18.5786 12.1997 18.4648 12.1481 18.3459 12.1027L18.2342 12.0513C18.0648 11.9431 17.866 11.8594 17.6492 11.805C17.4269 11.7401 17.2163 11.6575 17.0218 11.5588C17.0218 11.5588 16.9952 11.5404 16.9792 11.5368L16.1922 11.4302C16.022 11.4302 15.8519 11.4596 15.6924 11.3567C15.6285 11.3162 15.5275 11.3346 15.4424 11.3346C15.1819 11.3346 14.9107 11.3346 14.6554 11.3346C14.5309 11.3565 14.4084 11.3835 14.2885 11.4155C14.1662 11.4155 14.0386 11.4155 13.9109 11.4155C13.7833 11.4155 13.677 11.3861 13.5759 11.4963C13.5759 11.5257 13.4643 11.5221 13.4111 11.4963C13.3191 11.4939 13.2275 11.5062 13.1435 11.5324C13.0595 11.5585 12.9855 11.5977 12.9272 11.647C12.9154 11.6563 12.9009 11.6639 12.8846 11.6691C12.7091 11.7095 12.5283 11.7462 12.3529 11.794C12.2543 11.8256 12.1615 11.8651 12.0763 11.9116C11.8051 12.055 11.5446 12.2057 11.2574 12.349C11.1245 12.4225 10.9862 12.4887 10.8533 12.5695C10.7742 12.6233 10.7029 12.6824 10.6406 12.7459C10.4598 12.9003 10.279 13.051 10.1088 13.2127C9.93865 13.3744 9.66213 13.6317 9.46537 13.8632C9.18523 14.1909 8.9331 14.5296 8.71027 14.8776C8.547 15.1602 8.40501 15.4485 8.28485 15.7413C8.19445 15.9324 8.09874 16.1088 8.01897 16.3146C7.96389 16.4337 7.93171 16.5573 7.92325 16.6822C7.89968 16.9308 7.83909 17.1771 7.74245 17.4172C7.72626 17.5554 7.72626 17.6943 7.74245 17.8325C7.71586 18.1707 7.66269 18.5088 7.66269 18.8469C7.66269 19.185 7.70523 19.5232 7.75309 19.8613C7.79134 19.9995 7.84286 20.1358 7.9073 20.2693C7.90987 20.2937 7.90987 20.3183 7.9073 20.3428C7.94452 20.5523 7.96579 20.7654 8.02429 20.9676C8.07622 21.1185 8.14194 21.2671 8.22104 21.4123L8.39652 21.7467C8.46565 21.8864 8.52415 22.0297 8.5986 22.1694C8.67304 22.309 8.7794 22.4671 8.87511 22.6141C8.94269 22.7295 9.01902 22.8424 9.10377 22.9522C9.31648 23.2132 9.52919 23.4778 9.75784 23.7277C9.91155 23.8885 10.0784 24.0431 10.2577 24.1908C10.4438 24.3488 10.6353 24.5032 10.832 24.6429C10.9587 24.7262 11.0918 24.8047 11.2308 24.8781C11.3266 24.9369 11.4223 25.0104 11.5233 25.0655C11.6243 25.1206 11.7945 25.1868 11.9274 25.253C12.0604 25.3191 12.1721 25.3779 12.2997 25.4367C12.3861 25.4748 12.4767 25.508 12.5709 25.536L13.1027 25.7197C13.1611 25.7197 13.2303 25.7197 13.2888 25.7528C13.443 25.7969 13.5972 25.8557 13.7514 25.8925C13.8388 25.9176 13.9333 25.929 14.0279 25.9255C14.1319 25.927 14.2339 25.9449 14.3262 25.9781C14.4184 26.0112 14.4983 26.0587 14.5597 26.1167C14.6554 26.1865 14.7245 26.2967 14.8203 26.3739C15.019 26.5793 15.1228 26.8215 15.118 27.0686C15.1455 27.27 15.1294 27.4731 15.0702 27.6713C14.9911 27.8374 14.884 27.9966 14.7511 28.1454C14.7032 28.2067 14.6442 28.2635 14.5756 28.3145C14.4906 28.377 14.4108 28.4394 14.2832 28.4321C14.1555 28.4247 14.1183 28.5056 14.0332 28.5093C13.8606 28.5488 13.6741 28.5488 13.5015 28.5093C13.31 28.4247 13.108 28.5093 12.9697 28.4174C12.8315 28.3255 12.6081 28.3843 12.4379 28.3182C12.2739 28.2535 12.1053 28.1946 11.9328 28.1417C11.7341 28.0578 11.5239 27.9876 11.3053 27.9322L11.2468 27.9065C11.0979 27.822 10.9543 27.7338 10.8001 27.6603C10.6459 27.5868 10.5555 27.5757 10.4491 27.5133C10.2152 27.381 9.99182 27.2413 9.76848 27.098C9.50753 26.9588 9.27185 26.7984 9.06655 26.6202C8.85996 26.4205 8.62673 26.2347 8.36994 26.0652C8.11804 25.8701 7.89699 25.6569 7.71055 25.4294C7.47125 25.1721 7.26386 24.8891 7.04584 24.6171C6.89694 24.4334 6.74273 24.2496 6.60979 24.0695C6.47685 23.8894 6.39708 23.702 6.28541 23.4925C6.17374 23.283 6.12057 23.2095 6.05144 23.0588C5.92381 22.7942 5.81746 22.5259 5.70047 22.2613L5.53031 21.8937C5.53031 21.868 5.53031 21.8423 5.53031 21.8202C5.47713 21.6475 5.41864 21.4784 5.36014 21.3094L5.22188 20.6552C5.22188 20.567 5.16871 20.4824 5.14744 20.3979C5.12616 20.3134 5.14744 20.2325 5.14744 20.148C5.11021 19.7143 5.05703 19.2806 5.04108 18.8469C5.00048 18.4454 5.00581 18.0423 5.05704 17.6414C5.06025 17.4063 5.08869 17.1717 5.14212 16.9394C5.22188 16.7483 5.18466 16.5719 5.23784 16.3698C5.30697 16.1162 5.41332 15.8699 5.49308 15.6163C5.54094 15.4583 5.5569 15.2929 5.61539 15.1385C5.67388 14.9842 5.75897 14.8225 5.83873 14.6681C5.85608 14.6433 5.87032 14.6174 5.88127 14.5909C5.95636 14.3491 6.07423 14.1146 6.23224 13.8926C6.32796 13.7383 6.39177 13.5655 6.48749 13.4112C6.5832 13.2568 6.7321 13.0767 6.8544 12.9113C6.97671 12.7459 7.14156 12.4887 7.3064 12.2939C7.47125 12.0991 7.68396 11.8896 7.87008 11.6874C7.98706 11.5662 8.0881 11.4302 8.21572 11.3199C8.42311 11.1435 8.64645 10.9891 8.85384 10.8237C8.97908 10.7367 9.08806 10.6392 9.17822 10.5334C9.20739 10.4508 9.19424 10.3638 9.141 10.2872C8.93361 10.0777 8.69431 9.89757 8.48692 9.68808C8.35095 9.53782 8.22841 9.38194 8.12001 9.22132C8.02429 9.09636 7.92325 8.9714 7.83817 8.85379C7.75309 8.73618 7.64673 8.55976 7.55633 8.41275C7.38002 8.07915 7.24309 7.73623 7.14687 7.38734C7.00625 6.97935 6.94015 6.56078 6.95012 6.14142C6.95012 5.97236 6.87567 5.79962 6.88099 5.63055C6.87878 5.33293 6.909 5.03562 6.97139 4.74113C7.02952 4.35709 7.14901 3.97868 7.32768 3.61282C7.41808 3.4658 7.46062 3.28939 7.53506 3.12768C7.58656 3.01882 7.64692 2.91207 7.71586 2.80793C7.84657 2.58653 7.99571 2.37055 8.16255 2.16107C8.43005 1.85437 8.72301 1.55863 9.03996 1.27533C9.24248 1.10584 9.47066 0.951827 9.72062 0.815916C9.90207 0.740698 10.0684 0.64925 10.2152 0.543944C10.3641 0.407958 10.5714 0.444711 10.6884 0.294024L11.2574 0.176414C11.3744 0.147012 11.4861 0.110259 11.5978 0.0771812C11.6885 0.0405347 11.7873 0.014459 11.8902 0C12.4539 0 13.0176 0 13.5759 0C13.746 0.0237037 13.9105 0.0632689 14.0651 0.117609C14.1221 0.138906 14.1829 0.154968 14.2459 0.165388C14.3576 0.183765 14.464 0.165388 14.5703 0.253595C14.6767 0.341802 14.8203 0.334452 14.9479 0.37488C15.001 0.392274 15.0525 0.411913 15.1021 0.433685C15.2776 0.510866 15.4584 0.577021 15.6339 0.661553C15.7428 0.728345 15.8441 0.80084 15.937 0.878396C16.1012 1.03241 16.2845 1.17629 16.4847 1.30841C16.7033 1.45227 16.8913 1.61685 17.043 1.79722C17.2602 2.03221 17.4522 2.27789 17.6173 2.53228C17.7538 2.7209 17.8746 2.91479 17.9789 3.11298C18.0747 3.28939 18.1332 3.4805 18.2076 3.67162C18.2821 3.86274 18.3299 3.97299 18.3778 4.12368C18.4204 4.2373 18.4524 4.3527 18.4735 4.46916C18.5256 4.67581 18.5593 4.88446 18.5745 5.09396C18.5745 5.55337 18.5745 6.00911 18.5745 6.46852C18.5407 6.6901 18.4857 6.90987 18.4097 7.1264C18.3831 7.24401 18.3459 7.35794 18.314 7.47188C18.2821 7.58581 18.2448 7.79163 18.1863 7.94231C18.131 8.08581 18.0635 8.22694 17.9843 8.36497C17.9045 8.50463 17.8088 8.63327 17.7343 8.77661C17.7151 8.83814 17.7097 8.90137 17.7184 8.96405ZM15.8785 5.74081C15.8785 5.5791 15.8785 5.41739 15.8785 5.25567C15.892 5.16894 15.892 5.08146 15.8785 4.99473C15.8359 4.86609 15.7721 4.74848 15.7136 4.6272C15.6192 4.39529 15.5019 4.16812 15.3627 3.94727C15.1747 3.70549 14.9539 3.4766 14.7033 3.26366C14.5437 3.124 14.3736 2.96229 14.1343 2.95861C14.1185 2.96061 14.1022 2.96061 14.0864 2.95861C13.9918 2.87328 13.8692 2.80476 13.7286 2.75874C13.588 2.71272 13.4336 2.69052 13.2781 2.69399C13.211 2.69961 13.1432 2.69961 13.0761 2.69399C12.9386 2.66016 12.7958 2.63795 12.6507 2.62784C12.4864 2.64338 12.3257 2.67301 12.1721 2.71604C11.9896 2.74935 11.8116 2.79362 11.6403 2.84835C11.4777 2.91991 11.3231 2.99977 11.1777 3.08725C10.9824 3.18008 10.8039 3.28865 10.6459 3.41067C10.2932 3.75731 10.0189 4.13901 9.83229 4.54267C9.68359 4.91182 9.59793 5.29174 9.57704 5.67466C9.57129 5.90958 9.59442 6.14442 9.64617 6.37664C9.67276 6.56408 9.73126 6.74417 9.7738 6.93161C9.78119 6.94507 9.792 6.95752 9.8057 6.96836C9.94396 7.1999 10.0982 7.4241 10.2258 7.66299C10.3948 7.92767 10.641 8.1654 10.949 8.3613C11.147 8.47958 11.3587 8.58652 11.5818 8.68105C11.7798 8.78453 12.0154 8.84813 12.2625 8.86481C12.6167 8.87924 12.9718 8.87924 13.326 8.86481C13.3675 8.86309 13.4077 8.85425 13.443 8.83909L13.9003 8.66635C13.9897 8.63316 14.075 8.59506 14.1555 8.55241C14.4421 8.42251 14.691 8.25672 14.8894 8.0636C15.1538 7.82579 15.3686 7.56351 15.5275 7.28444C15.6126 7.1117 15.7136 6.94263 15.7828 6.75887C15.8419 6.60367 15.8793 6.4449 15.8944 6.28476C15.8944 6.10467 15.8785 5.9209 15.8785 5.74081Z" fill="#131313"/>
<path d="M154.648 28.6926C153.436 28.7698 152.548 28.325 151.872 27.4834C151.186 26.6649 150.908 25.7132 151.08 24.7747C151.195 24.3429 151.384 23.9222 151.644 23.5214C151.774 23.2567 151.966 23.0084 152.213 22.7864C152.542 22.5593 152.897 22.3515 153.276 22.1652C153.808 21.8749 154.34 21.9521 154.871 21.9411C155.169 21.9546 155.46 22.0086 155.727 22.1001C155.995 22.1916 156.233 22.3186 156.43 22.474C157.669 23.2715 158.168 24.4733 157.95 25.8736C157.888 26.7048 157.382 27.4905 156.531 28.0788C155.919 28.45 155.318 28.8102 154.648 28.6926Z" fill="#FFB200"/>
<path d="M149.944 26.3861C149.652 26.2795 149.413 26.2097 149.205 26.1178C148.822 25.9561 148.45 25.7833 148.078 25.6069C147.922 25.5313 147.783 25.441 147.663 25.3386C146.775 24.6536 145.976 23.9156 145.275 23.1334C144.972 22.7659 144.589 22.4572 144.276 22.097C143.744 21.4538 143.212 20.7813 142.68 20.1454C142.415 19.8404 142.191 19.4765 141.654 19.5427C141.146 19.5868 140.631 19.5868 140.123 19.5427C139.75 19.5206 139.639 19.6493 139.644 20.0168C139.644 22.0272 139.644 24.0376 139.644 26.0516V26.5257C139.524 26.5399 139.404 26.5497 139.282 26.5552H135.22C134.72 26.5552 134.688 26.5552 134.688 26.0406C134.688 19.7265 134.688 13.4135 134.688 7.10181C134.688 6.71223 134.853 6.62402 135.177 6.62402C138.208 6.62402 141.239 6.62402 144.27 6.62402C144.511 6.6586 144.741 6.72472 144.946 6.81881C145.003 6.84209 145.064 6.86177 145.127 6.87762L146.594 7.16797C146.633 7.17413 146.67 7.18673 146.701 7.20472C147.311 7.55978 147.894 7.93768 148.445 8.33671C148.882 8.62092 149.189 8.98772 149.328 9.39152C149.456 9.65964 149.606 9.92227 149.78 10.178C149.955 10.5456 150.077 10.9572 150.242 11.3394C150.53 12.2064 150.575 13.1033 150.375 13.982C150.304 14.7105 150.031 15.4229 149.572 16.0806C149.343 16.3709 149.258 16.7752 149.04 17.0545C148.76 17.3593 148.434 17.6426 148.067 17.8998C147.908 18.0248 147.711 18.102 147.535 18.2122C147.437 18.3004 147.378 18.4071 147.368 18.5184C147.357 18.6298 147.395 18.7408 147.477 18.837C147.94 19.3222 148.37 19.833 148.844 20.3071C149.315 20.7821 149.826 21.2374 150.375 21.6707C150.564 21.7989 150.684 21.9674 150.717 22.1488C150.75 22.3302 150.693 22.514 150.556 22.6704C150.268 23.0685 150.071 23.495 149.971 23.9347C149.845 24.3839 149.782 24.8406 149.785 25.2982C149.785 25.5371 149.907 25.7723 149.966 26.0075C149.969 26.1339 149.962 26.2603 149.944 26.3861ZM139.655 16.3048C140.819 16.1357 141.968 16.5216 143.069 16.0365C143.614 15.8729 144.102 15.6297 144.499 15.3234C144.957 14.9109 145.232 14.4157 145.291 13.8974C145.353 13.4194 145.353 12.9385 145.291 12.4604C145.195 12.0859 145.057 11.7172 144.877 11.3578C144.712 10.9462 144.276 10.8763 143.957 10.6595C143.829 10.5713 143.675 10.4721 143.526 10.4721C142.303 10.45 141.075 10.45 139.846 10.45C139.783 10.4573 139.722 10.4709 139.665 10.4904L139.655 16.3048Z" fill="#FFB200"/>
<path d="M134.339 26.5441H129.218C128.963 25.7539 128.686 24.9564 128.452 24.1552C128.282 23.6186 128.133 23.0783 127.963 22.5417C127.931 22.4351 127.809 22.358 127.777 22.2514C127.681 21.928 127.623 21.5898 127.521 21.2627C127.42 20.9356 127.314 20.7445 126.926 20.7482C125.198 20.7482 123.475 20.7482 121.747 20.7482C121.555 20.7555 121.363 20.7555 121.172 20.7482C120.534 20.7004 120.359 20.9025 120.215 21.5053C120.052 22.0392 119.848 22.5667 119.603 23.0857C119.497 23.3466 119.401 23.6112 119.306 23.8722C119.146 24.3279 118.992 24.7873 118.822 25.2357C118.673 25.6253 118.513 26.0112 118.338 26.3861C118.295 26.4743 118.168 26.5809 118.077 26.5809C116.62 26.5809 115.163 26.5809 113.706 26.5809C113.624 26.5727 113.546 26.5513 113.478 26.5184C113.536 26.2795 113.579 26.0663 113.648 25.8642C113.717 25.6621 113.797 25.5187 113.871 25.346C114.084 24.8572 114.307 24.372 114.509 23.8759C114.626 23.5782 114.685 23.2584 114.807 22.9607C115.011 22.5025 115.174 22.0361 115.296 21.5641C115.459 21.1154 115.66 20.6737 115.897 20.241C116.041 19.8735 116.115 19.5059 116.243 19.1384C116.333 18.8885 116.461 18.6533 116.556 18.4033C116.689 18.0689 116.801 17.7234 116.939 17.389C117.131 16.9332 117.349 16.4848 117.54 16.0291C117.657 15.7424 117.748 15.4411 117.865 15.1544C118.067 14.6545 118.285 14.1621 118.487 13.6622C118.598 13.3902 118.673 13.1109 118.779 12.8389C119.003 12.2619 119.247 11.6923 119.465 11.1116C119.577 10.8212 119.651 10.5125 119.763 10.2185C119.875 9.92444 119.992 9.68187 120.103 9.41357C120.146 9.32169 120.172 9.22246 120.21 9.13425C120.359 8.76672 120.513 8.39919 120.662 8.05371C120.762 7.82522 120.845 7.59338 120.912 7.35908C121.076 6.69018 121.13 6.62402 121.794 6.62402C123.56 6.62402 125.325 6.62402 127.112 6.65343C127.537 6.65343 127.686 6.83352 127.782 7.22677C127.888 7.67883 128.085 8.10884 128.229 8.55355C128.319 8.82553 128.383 9.10485 128.468 9.37682C128.649 9.96487 128.814 10.5603 129 11.1373C129.181 11.6371 129.431 12.1112 129.617 12.6074C129.744 12.9749 129.808 13.3425 129.909 13.71C129.994 14.0077 130.085 14.3017 130.186 14.5921C130.319 14.9963 130.446 15.4043 130.606 15.7976C130.802 16.2937 131.02 16.7789 131.233 17.2677C131.251 17.3023 131.263 17.338 131.27 17.3743C131.371 17.8153 131.435 18.2674 131.579 18.6974C131.754 19.2266 131.999 19.7338 132.201 20.252C132.307 20.524 132.398 20.8033 132.483 21.0826C132.648 21.6303 132.802 22.1852 132.977 22.7255C133.206 23.4312 133.445 24.1331 133.685 24.8388C133.834 25.2725 133.993 25.7062 134.153 26.1398C134.203 26.2771 134.265 26.4121 134.339 26.5441ZM126.096 17.2126C126.096 17.0913 126.096 17.0141 126.07 16.9443L125.607 15.0331V14.9596C125.469 14.5406 125.325 14.1253 125.192 13.7026C125.107 13.4343 125.022 13.1624 124.964 12.8867C124.857 12.3685 124.778 11.8429 124.671 11.3211C124.607 11.0013 124.533 10.6779 124.427 10.3692C124.335 10.2097 124.217 10.058 124.076 9.91709C124.064 10.0823 124.026 10.2462 123.964 10.4059C123.677 10.8396 123.714 11.3652 123.533 11.8282C123.416 12.137 123.342 12.4567 123.235 12.7691C123.108 13.1366 122.959 13.5262 122.842 13.9121C122.704 14.3679 122.597 14.8346 122.464 15.294C122.363 15.6616 122.241 16.0291 122.129 16.3966C122.092 16.5179 122.044 16.6319 122.002 16.7642C121.959 16.8965 121.901 17.0508 121.837 17.2383L126.096 17.2126Z" fill="#FFB200"/>
<path d="M96.122 15.5759H96.5846C99.1052 15.5759 101.626 15.5759 104.141 15.5759C104.471 15.5759 104.593 15.6458 104.582 15.9912C104.582 16.866 104.582 17.737 104.582 18.6117C104.582 18.9094 104.503 19.0895 104.157 19.0858C103.625 19.0858 103.093 19.1189 102.562 19.1226H96.0688C96.0688 19.2623 96.0688 19.3725 96.0688 19.4901C96.0688 21.8019 96.0688 24.1173 96.0688 26.4291C96.0688 26.7452 95.9624 26.8591 95.654 26.8554C94.3884 26.8554 93.1228 26.8554 91.8572 26.8554C91.2669 26.8554 91.1553 26.7231 91.1553 26.1424C91.1553 19.9214 91.1553 13.6979 91.1553 7.47191C91.1553 6.95737 91.1553 6.93164 91.687 6.93164C96.0847 6.93164 100.482 6.93164 104.88 6.93164C105.21 6.93164 105.322 7.0125 105.311 7.36165C105.279 8.29518 105.311 9.23238 105.311 10.1696C105.311 10.5739 105.167 10.7172 104.779 10.7172C102.184 10.7172 99.5891 10.7172 96.9941 10.7356C96.7494 10.7356 96.5155 10.4415 96.2762 10.7172C96.1943 10.7889 96.1395 10.8735 96.1167 10.9634C96.1167 12.4042 96.1167 13.8485 96.1167 15.2893C96.1094 15.3848 96.1112 15.4806 96.122 15.5759Z" fill="#FFB200"/>
<path d="M65.8484 11.4268C65.8484 11.199 65.9122 11.0409 65.9122 10.8792C65.9122 9.29884 65.9122 7.71846 65.9122 6.13808C65.9122 5.61987 65.9707 5.55371 66.5078 5.55371C67.0449 5.55371 67.4278 5.55371 67.8851 5.55371C68.151 5.55371 68.252 5.66029 68.2467 5.92124C68.2467 6.3145 68.2467 6.70408 68.2467 7.09734V25.0071V26.7859C68.14 26.8117 68.0294 26.829 67.917 26.8373C67.3852 26.8373 66.8535 26.8373 66.3217 26.8373C66.0292 26.8373 65.8963 26.7161 65.9122 26.4257C65.9122 26.2493 65.9122 26.0582 65.9122 25.8965C65.9122 25.6061 65.7952 25.5767 65.5985 25.698C65.2688 25.9038 64.9657 26.1574 64.6307 26.3596C64.3764 26.5363 64.0818 26.6828 63.7586 26.7932C62.8284 27.1044 61.7731 27.1886 60.7647 27.0321C60.3819 26.9586 59.9352 26.9844 59.6374 26.7859C59.3396 26.5874 58.8291 26.5102 58.4516 26.2199C57.9229 25.8491 57.4491 25.4428 57.0371 25.0071C56.6286 24.55 56.3372 24.0477 56.1756 23.5222C56.0108 22.9415 55.7715 22.3792 55.5694 21.8095C55.5589 21.7485 55.5589 21.6868 55.5694 21.6258C55.5694 20.1814 55.5694 18.7407 55.5694 17.3C55.63 16.9367 55.7422 16.5785 55.9044 16.2304C55.9375 16.1624 55.9607 16.0922 55.9735 16.021C56.047 15.4963 56.2446 14.9835 56.5585 14.5031C56.6972 14.1799 56.8974 13.8709 57.1541 13.5842C57.5559 13.1546 57.9927 12.7411 58.4622 12.3457C58.7135 12.1221 59.0109 11.9252 59.3449 11.7613C59.6812 11.615 60.0374 11.4919 60.4085 11.3938C60.7382 11.2872 61.0678 11.1916 61.3975 11.0924C61.5267 11.0367 61.6688 10.9969 61.8176 10.9748C62.6897 10.9748 63.5618 10.9417 64.4286 10.9748C64.776 11.0311 65.1081 11.1254 65.4124 11.2541C65.54 11.3019 65.6676 11.357 65.8484 11.4268ZM65.9016 18.4099C65.9016 16.8405 65.9016 15.2712 65.9016 13.7055C65.9016 13.338 65.7048 13.1395 65.4017 13.0881C64.801 12.9866 64.1919 12.9105 63.5778 12.8602C62.6443 12.8113 61.7102 12.9491 60.887 13.2571C60.3524 13.4668 59.8912 13.7554 59.5364 14.1024C58.7919 14.7272 58.4303 15.6571 58.1165 16.5686C58.0101 16.7827 57.9405 17.0047 57.9092 17.2301C57.9464 18.0828 57.723 18.9208 57.8347 19.7808C57.9464 20.6408 57.8666 21.4714 58.2814 22.2984C58.4771 22.7693 58.726 23.2289 59.0259 23.6729C59.5151 24.3161 60.0894 24.8012 60.903 24.9409C61.0152 24.9712 61.1207 25.012 61.2167 25.0622C61.4743 25.1671 61.7655 25.2264 62.0642 25.2347C62.363 25.243 62.66 25.2002 62.929 25.11C63.3824 24.9553 63.8044 24.7601 64.184 24.5293C64.6675 24.2902 65.1325 24.0338 65.5772 23.7611C65.7019 23.6764 65.7988 23.5741 65.8611 23.4613C65.9235 23.3484 65.95 23.2275 65.9388 23.1069C65.891 21.5376 65.9016 19.9719 65.9016 18.4025V18.4099Z" fill="#131313"/>
<path d="M112.091 26.8038H107.183V6.95719C107.341 6.93528 107.5 6.92055 107.661 6.91309H111.575C112.107 6.91309 112.107 6.91309 112.107 7.44968C112.107 13.2934 112.107 19.1383 112.107 24.9845L112.091 26.8038Z" fill="#FFB200"/>
<path d="M78.1057 19.556H73.5804C73.0805 19.556 72.8997 19.8463 73.0486 20.3167C73.1271 20.5217 73.1629 20.7333 73.155 20.9452C73.1817 21.8048 73.4736 22.6506 74.0111 23.426C74.3085 23.8849 74.7878 24.2761 75.3937 24.5544C76.856 25.4291 78.4354 25.1975 79.9935 25.1534C80.6504 25.0766 81.2891 24.9381 81.8919 24.7418C81.9714 24.7266 82.0456 24.7003 82.1099 24.6646C82.5194 24.4074 82.5991 24.4368 82.6895 24.8998C82.764 25.2674 82.849 25.5945 82.9022 25.9436C82.9285 26.0311 82.9196 26.1219 82.8765 26.2061C82.8334 26.2904 82.7577 26.3648 82.6576 26.4214C82.3065 26.6706 81.8355 26.8223 81.3335 26.8477C81.008 26.8811 80.6888 26.939 80.3817 27.0205C80.0701 27.0765 79.7512 27.111 79.4298 27.1234C78.6268 27.1234 77.8345 27.1528 77.0156 27.1234C76.6254 27.0782 76.2437 27.003 75.8776 26.8992L75.6543 26.8551C75.1838 26.7859 74.7242 26.685 74.2823 26.5537C73.9632 26.4398 73.7186 26.1531 73.4155 25.9951C73.1091 25.8592 72.8495 25.6786 72.6551 25.4658C72.2804 25.0717 71.9818 24.6455 71.767 24.1979C71.6182 23.8303 71.3682 23.5069 71.2353 23.1357C70.9969 22.6077 70.861 22.0602 70.8311 21.5075C70.8311 20.8717 70.6663 20.2359 70.645 19.5964C70.6533 19.1345 70.6959 18.6733 70.7726 18.2145C70.8227 17.9526 70.8441 17.6884 70.8365 17.4243C70.7461 16.5679 71.1342 15.8145 71.3682 15.039C71.5257 14.4804 71.8168 13.9438 72.2297 13.4513C72.6041 12.9089 73.13 12.423 73.7771 12.0216C74.0834 11.8396 74.3746 11.6457 74.6492 11.4409C74.6791 11.4237 74.7143 11.4115 74.7521 11.4051C74.7899 11.3987 74.8292 11.3984 74.8672 11.4042C75.3458 11.463 75.7181 11.1983 76.1222 11.0366C76.2233 10.9987 76.3369 10.9797 76.4519 10.9815C77.207 10.9815 77.9621 10.9484 78.7172 10.9815C79.0658 11.0474 79.3939 11.157 79.685 11.3049C79.9317 11.3981 80.1681 11.5037 80.3923 11.621C80.6823 11.7737 80.9527 11.9434 81.2006 12.1282C81.9367 12.747 82.4359 13.4838 82.6523 14.2709C82.849 14.8038 82.9554 15.3735 83.1149 15.9101C83.418 16.9245 83.2638 17.9646 83.3064 18.9936C83.3064 19.409 83.1468 19.5707 82.7108 19.5707L78.1057 19.556ZM81.0464 17.6999C80.94 17.1192 80.8549 16.5974 80.7539 16.1085C80.6741 15.741 80.5944 15.3735 80.488 15.0059C80.4464 14.7497 80.3383 14.5007 80.1689 14.2709C79.818 13.9364 79.6372 13.455 79.1373 13.2308C78.6375 13.0066 78.2759 12.7273 77.7547 12.7714C77.1272 12.8228 76.4519 12.5619 75.8935 13.047C75.4469 12.9515 75.2235 13.308 74.9311 13.5175C74.8435 13.5842 74.7685 13.6583 74.7077 13.738C74.4038 14.0541 74.1387 14.3872 73.9154 14.734C73.6814 15.175 73.6123 15.7043 73.3836 16.1416C73.0965 16.6525 73.256 17.1633 73.1922 17.6999H81.0464Z" fill="#131313"/>
<path d="M42.722 24.492C43.2005 25.1976 43.0836 25.8628 43.0836 26.5906C42.3736 26.634 41.6728 26.7314 40.9937 26.8809C39.7068 27.2484 38.404 27.1161 37.1118 27.1088C36.4402 27.1154 35.7774 27.0028 35.1868 26.7817C34.8146 26.6383 34.3041 26.6751 34.0542 26.2193C34.0012 26.1472 33.9263 26.0839 33.8344 26.0338C33.7426 25.9837 33.6362 25.9479 33.5224 25.929C32.9906 25.8187 32.8152 25.3667 32.4908 25.0616C32.0181 24.5135 31.6752 23.9167 31.4751 23.2938C31.0822 22.311 30.9171 21.2913 30.9859 20.2727C30.9859 19.3612 30.9859 18.4351 30.9859 17.5383C31.0238 17.1685 31.0913 16.8004 31.188 16.4357C31.2081 16.3741 31.2206 16.3114 31.2252 16.2483C31.2449 15.5938 31.4247 14.9464 31.7569 14.3334C32.0223 13.8661 32.3536 13.418 32.746 12.9956C32.8429 12.8982 32.93 12.7963 33.0066 12.6906C33.3044 12.1687 33.9053 12.0327 34.336 11.6725C34.5966 11.4557 35.0539 11.4741 35.3995 11.3675C35.6442 11.294 35.8728 11.1727 36.1121 11.0918C36.2758 11.0252 36.4562 10.9803 36.6439 10.9595C37.2554 10.9595 37.8669 10.9595 38.4838 10.9595C38.7263 10.9383 38.9726 10.963 39.1965 11.031C39.4203 11.099 39.6132 11.2076 39.7547 11.3454C39.7866 11.3748 39.8504 11.3712 39.8983 11.3785C40.6002 11.441 41.0841 11.8857 41.5627 12.3231C41.8072 12.5563 42.0259 12.8021 42.2168 13.0581C42.3563 13.2181 42.4552 13.3933 42.5093 13.5763C42.6316 14.0872 42.9293 14.5246 43.041 15.0464C43.1527 15.5683 43.0782 16.1821 43.2537 16.6856C43.5302 17.4611 43.392 18.2293 43.4345 19.0011C43.4345 19.398 43.275 19.556 42.9028 19.556H33.8149C33.2193 19.556 33.1927 19.556 33.2299 20.1441C33.239 20.6816 33.3138 21.2177 33.4533 21.7465C33.6653 22.6152 34.1519 23.441 34.8784 24.1649C35.0167 24.2898 35.1922 24.4405 35.3676 24.4626C35.8356 24.5324 36.2025 24.8301 36.6439 24.9771C37.7606 25.3446 38.8667 25.1609 39.9727 25.1719C40.5985 25.1237 41.211 25.0135 41.7914 24.8448C41.9786 24.7969 42.1571 24.734 42.3231 24.6573C42.4773 24.6022 42.6156 24.5361 42.722 24.492ZM37.1384 17.7257C38.3136 17.7257 39.4941 17.7257 40.6693 17.7257C40.9352 17.7257 41.0416 17.6486 40.999 17.3582C40.898 16.6856 41.0469 16.002 40.7704 15.3147C40.5851 14.7979 40.3378 14.2927 40.0312 13.8042C39.8911 13.5747 39.6857 13.3669 39.4272 13.1933C39.1687 13.0197 38.8623 12.8837 38.5263 12.7935C37.5621 12.6215 36.5386 12.7178 35.6761 13.0618C35.6442 13.0618 35.6229 13.1059 35.591 13.1316C35.3676 13.3227 35.1496 13.5212 34.9156 13.7086C34.3151 14.292 33.8918 14.9534 33.6713 15.6529C33.5444 16.0454 33.4538 16.4432 33.4001 16.8437C33.3887 16.8901 33.3709 16.9356 33.3469 16.9797C33.0438 17.4905 33.1661 17.7147 33.7617 17.7147L37.1384 17.7257Z" fill="#131313"/>
<path d="M44.6099 27.1053V5.8584H46.7954V6.74414C46.7954 12.8206 46.7954 18.8934 46.7954 24.9626C46.7954 25.558 46.7954 26.1534 46.7954 26.7451C46.7954 27.0024 46.7316 27.1126 46.4551 27.1126C45.8276 27.0979 45.2427 27.1053 44.6099 27.1053Z" fill="#131313"/>
<path d="M41.4087 33.386C41.8394 33.9226 41.648 34.5106 41.632 35.0803C41.632 35.378 41.5682 35.6793 41.5203 36.0763C41.1543 36.1014 40.7856 36.1014 40.4196 36.0763C40.159 36.0395 40.0686 35.7345 40.2016 35.5544C40.5366 35.095 40.3292 34.6098 40.3983 34.0843H38.6275C38.452 34.7458 38.2766 35.4147 38.0958 36.0726H37.0322C37.1279 35.7051 36.9418 35.3375 37.2503 34.97C37.4151 34.7752 37.2503 34.3526 37.3407 34.0512C37.4417 33.5881 37.6225 33.1397 37.7342 32.6766C37.8192 32.3091 37.8033 31.9158 37.899 31.552C37.9947 31.1881 37.9628 30.8169 38.3882 30.6589C38.5085 30.6111 38.6432 30.5834 38.7817 30.578C39.4996 30.578 40.2228 30.6001 40.9407 30.578C41.8128 30.5339 42.6158 31.28 42.3977 32.14C42.2808 32.6435 42.1 33.2206 41.4087 33.386ZM41.1268 31.8717C40.6429 31.4638 40.1005 31.5373 39.5741 31.5446C39.4464 31.5446 39.2337 31.5887 39.2072 31.6622C39.0476 32.0849 38.9413 32.5259 38.7871 33.0442H39.9463C40.7386 33.0772 41.1747 32.6215 41.1268 31.8717Z" fill="#131313"/>
<path d="M104.646 33.4196C104.768 33.5465 104.858 33.687 104.912 33.8349C104.996 34.2354 104.984 34.6428 104.874 35.0404C104.694 35.4079 104.63 35.6579 104.949 35.9335C104.715 36.1026 103.694 36.1908 103.572 36.018C103.46 35.8436 103.432 35.6492 103.492 35.4631C103.811 35.011 103.63 34.5516 103.641 34.0665H101.918C101.817 34.434 101.721 34.7611 101.62 35.1029C101.519 35.4447 101.439 35.7424 101.343 36.0732C101.253 36.0732 101.163 36.1099 101.088 36.0732C100.833 35.985 100.418 36.3121 100.328 35.8674C100.325 35.5777 100.373 35.2889 100.471 35.0073L100.567 34.4524C100.623 33.8789 100.738 33.309 100.913 32.747C101.063 32.255 101.143 31.754 101.152 31.2512C101.195 30.902 101.62 30.5419 101.982 30.5382C102.769 30.4977 103.56 30.4977 104.348 30.5382C105.188 30.6227 105.858 31.1115 105.683 32.1186C105.577 32.3614 105.446 32.5985 105.289 32.8279C105.183 33.0888 105.114 33.3424 104.731 33.2873L104.646 33.4196ZM104.401 31.8356C104.27 31.7801 104.131 31.7333 103.986 31.6959C103.651 31.6371 103.311 31.593 102.971 31.5415C102.481 31.468 102.333 31.7327 102.343 32.1553C102.343 32.1553 102.343 32.181 102.343 32.1921C102.258 32.4493 102.178 32.7103 102.067 33.0447C102.598 33.0447 102.976 33.0447 103.359 33.0447C104.029 33.0337 104.465 32.5449 104.401 31.8356Z" fill="#131313"/>
<path d="M128.51 30.417C129.004 30.5034 129.484 30.6267 129.94 30.7845C130.156 30.9117 130.328 31.0702 130.445 31.2487C130.562 31.4272 130.62 31.6214 130.616 31.8173C130.713 32.4006 130.695 32.9904 130.562 33.5704C130.27 34.4672 129.892 35.3639 128.93 35.8491C128.415 36.171 127.736 36.3389 127.042 36.3158C126.459 36.2248 125.947 35.9849 125.609 35.6442C125.271 35.3034 125.131 34.887 125.218 34.4782C125.25 34.1548 125.17 33.8093 125.218 33.4969C125.314 33.0522 125.532 32.6369 125.644 32.1958C125.808 31.5453 126.351 31.2145 126.808 30.8323C127.057 30.659 127.376 30.5413 127.723 30.4942C127.97 30.4684 128.221 30.4684 128.467 30.4942L128.51 30.417ZM129.345 32.8353C129.345 32.7104 129.345 32.5891 129.345 32.4678C129.398 31.7732 128.93 31.5086 128.334 31.4792C127.377 31.435 126.611 32.4825 126.516 33.2323C126.529 33.3793 126.509 33.5268 126.457 33.6696C126.064 34.1805 126.564 34.4819 126.712 34.8567C126.75 34.945 126.893 35.0479 126.989 35.0479C127.44 35.0812 127.895 35.0663 128.34 35.0038C128.611 34.9523 128.707 34.6032 128.871 34.3973C129.238 33.9176 129.402 33.3764 129.345 32.8353Z" fill="#131313"/>
<path d="M64.5098 30.417C65.0044 30.5034 65.484 30.6267 65.9402 30.7845C66.1559 30.9117 66.3282 31.0702 66.445 31.2487C66.5617 31.4272 66.62 31.6214 66.6156 31.8173C66.7129 32.4006 66.6951 32.9904 66.5624 33.5704C66.27 34.4672 65.8924 35.3639 64.9299 35.8491C64.4147 36.171 63.7359 36.3389 63.0421 36.3158C62.4589 36.2248 61.947 35.9849 61.6088 35.6442C61.2706 35.3034 61.1311 34.887 61.2182 34.4782C61.2501 34.1548 61.1703 33.8093 61.2182 33.4969C61.3139 33.0522 61.5319 32.6369 61.6436 32.1958C61.8084 31.5453 62.3508 31.2145 62.8081 30.8323C63.0574 30.659 63.3759 30.5413 63.7228 30.4942C63.9695 30.4684 64.2205 30.4684 64.4673 30.4942L64.5098 30.417ZM65.3447 32.8353C65.3447 32.7104 65.3447 32.5891 65.3447 32.4678C65.3979 31.7732 64.9299 31.5086 64.3343 31.4792C63.3771 31.435 62.6114 32.4825 62.5157 33.2323C62.5286 33.3793 62.5089 33.5268 62.4572 33.6696C62.0637 34.1805 62.5635 34.4819 62.7124 34.8567C62.7497 34.945 62.8932 35.0479 62.989 35.0479C63.4398 35.0812 63.8954 35.0663 64.3396 35.0038C64.6108 34.9523 64.7065 34.6032 64.8714 34.3973C65.238 33.9176 65.402 33.3764 65.3447 32.8353Z" fill="#131313"/>
<path d="M120.805 36.088C120.348 36.088 119.89 36.088 119.438 36.088C119.087 36.088 119.034 35.9483 119.231 35.6506C119.268 35.6087 119.298 35.5644 119.321 35.5183C119.407 35.0663 119.47 34.6105 119.571 34.1621C119.726 33.5006 119.917 32.8464 120.055 32.1812C120.13 31.8136 120.135 31.4461 120.167 31.0786C120.199 30.711 120.412 30.564 120.725 30.5567C121.512 30.5567 122.321 30.5346 123.092 30.5567C123.778 30.5787 124.389 31.1484 124.48 31.7989C124.499 31.8736 124.525 31.9473 124.559 32.0194C124.636 32.1711 124.681 32.3295 124.692 32.4899C124.647 32.8809 124.56 33.2691 124.432 33.6513C124.234 34.264 123.873 34.8459 123.368 35.3676C123.16 35.6226 122.846 35.8289 122.467 35.9598C122.088 36.0908 121.661 36.1405 121.241 36.1027C121.089 36.0953 120.936 36.0953 120.784 36.1027L120.805 36.088ZM120.566 34.9854L120.715 35.1324C121.221 35.116 121.721 35.0428 122.193 34.9156C122.879 34.6546 123.07 34.0004 123.177 33.3352C123.197 33.2225 123.24 33.1124 123.304 33.0081C123.404 32.8039 123.43 32.586 123.38 32.3734C123.33 32.1607 123.205 31.9598 123.017 31.7879C122.826 31.6809 122.603 31.6036 122.365 31.5611C122.126 31.5187 121.877 31.512 121.635 31.5417C121.58 31.551 121.53 31.5697 121.489 31.5961C121.449 31.6224 121.418 31.6556 121.401 31.6923C121.231 32.2142 121.06 32.7398 120.933 33.2727C120.858 33.5851 120.885 33.9232 120.821 34.243C120.755 34.4934 120.67 34.7412 120.566 34.9854Z" fill="#131313"/>
<path d="M47.9482 36.0982C48.1025 35.172 48.2141 34.3487 48.3843 33.5255C48.48 33.0771 48.6927 32.6544 48.8044 32.206C48.8634 31.9101 48.89 31.6116 48.8842 31.3129C48.8842 30.8645 49.1713 30.5779 49.6393 30.5448C50.3699 30.5007 51.1048 30.5007 51.8355 30.5448C52.0186 30.5605 52.1943 30.6043 52.3497 30.673C52.5052 30.7417 52.6366 30.8335 52.7341 30.9417C53.0172 31.1526 53.1895 31.4231 53.2234 31.7099C53.2234 31.923 53.4361 32.1325 53.4201 32.3383C53.3416 32.854 53.2083 33.3651 53.0213 33.8673C52.8807 34.3665 52.6163 34.8453 52.2396 35.2822C52.018 35.5475 51.689 35.7621 51.2931 35.8997C50.1763 36.3444 49.033 35.9438 47.9482 36.0982ZM49.3042 34.9956L49.4319 35.161C49.9647 35.1401 50.4875 35.0516 50.974 34.9C51.878 34.481 51.9205 33.4997 52.1492 32.6948C52.2768 32.2317 51.9843 32.048 51.543 31.7466C51.1016 31.4452 50.756 31.6437 50.3678 31.5739C50.2986 31.5739 50.1657 31.6364 50.1444 31.6952C49.9636 32.3089 49.7935 32.9301 49.6127 33.5328C49.5489 33.7938 49.5648 34.0694 49.5063 34.334C49.4478 34.5986 49.384 34.764 49.3042 34.9809V34.9956Z" fill="#131313"/>
<path d="M44.6359 32.7582H45.8909C46.1809 32.738 46.473 32.738 46.763 32.7582C46.9385 32.7803 47.098 32.9053 47.2948 32.9824C47.1671 33.1809 47.0874 33.4823 46.9066 33.5558C46.1834 33.8572 45.4283 33.7101 44.6519 33.6366C44.2265 34.1291 44.1786 34.3055 44.3062 35.0112H47.0289C47.0289 35.3199 47.0289 35.5772 47.0289 35.8271C47.0289 35.919 46.8587 36.0623 46.7683 36.0623C45.4389 36.0623 44.1095 36.0623 42.7588 36.0623C42.7588 35.7352 42.5993 35.4302 42.929 35.2097C42.929 35.2097 42.929 35.1619 42.929 35.1325C43.014 34.6804 43.1044 34.2247 43.1842 33.7726C43.2237 33.2139 43.3286 32.6584 43.498 32.1114C43.6681 31.7181 43.6043 31.3139 43.7426 30.9537C43.817 30.7699 44.1042 30.5567 44.2743 30.5494C45.3379 30.509 46.4014 30.5494 47.433 30.5273C47.7361 30.5273 47.8159 30.7221 47.8106 30.9574C47.8053 31.1926 47.8425 31.5123 47.4437 31.516H45.3645C44.9018 31.516 44.7529 31.6446 44.7104 32.0893C44.7317 32.3062 44.6838 32.49 44.6359 32.7582Z" fill="#131313"/>
<path d="M78.9321 36.058H77.7144C77.7144 35.8779 77.6878 35.7309 77.6878 35.5802C77.6878 35.0583 77.6878 35.0583 77.156 35.0583C76.8018 35.0726 76.4467 35.0726 76.0925 35.0583C75.6883 35.0289 75.5341 35.2788 75.4118 35.5802C75.2895 35.8816 75.114 36.1499 74.6992 36.1058C74.409 36.0905 74.1174 36.0905 73.8271 36.1058C74.1037 35.6096 74.327 35.2163 74.545 34.8194C74.7631 34.4225 74.9545 34.0476 75.1725 33.6654C75.4224 33.2133 75.7043 32.7649 75.9436 32.3129C76.1829 31.8608 76.4753 31.4859 76.6774 31.0412C76.9539 30.4311 78.0494 30.4091 78.3153 30.8354C78.3768 30.9129 78.4233 30.9957 78.4535 31.0816C78.5492 31.7652 78.629 32.4525 78.7247 33.1361C78.7992 33.6874 78.9108 34.2387 78.9587 34.79C78.9587 35.1943 78.9321 35.617 78.9321 36.058ZM77.3368 32.1953H77.2358C76.9539 32.673 76.6668 33.1435 76.4009 33.6286C76.3701 33.7285 76.3849 33.8325 76.4434 33.9263C76.6807 33.9943 76.9366 34.0256 77.1932 34.0182C77.2889 34.0182 77.4432 33.8124 77.4432 33.7021C77.4485 33.1913 77.39 32.7098 77.3368 32.1953Z" fill="#131313"/>
<path d="M110.942 36.0919C110.558 36.1355 110.166 36.1267 109.788 36.0662C109.591 36 109.469 35.6987 109.341 35.4671C109.302 35.3329 109.286 35.196 109.293 35.0592H107.352C107.006 36.0405 106.501 36.3051 105.512 35.9927C105.842 35.4781 106.177 34.982 106.485 34.4711C106.682 34.1403 106.836 33.7802 107.017 33.442C107.443 32.6665 107.847 31.8764 108.315 31.1229C108.607 30.6488 109.187 30.3364 109.825 30.6819C109.91 30.726 109.995 30.7554 110.091 30.7995C110.192 31.8065 110.282 32.8136 110.394 33.8169C110.452 34.3351 110.527 34.8497 110.628 35.3642C110.708 35.6114 110.813 35.8546 110.942 36.0919ZM109.059 32.2917H108.921C108.644 32.7401 108.352 33.1848 108.091 33.6442C108.06 33.7583 108.087 33.8762 108.166 33.9786C108.378 34.1918 109.102 33.9786 109.112 33.6993C109.118 33.2252 109.07 32.7584 109.048 32.2917H109.059Z" fill="#131313"/>
<path d="M36.2451 34.0737C36.4046 34.6948 35.9419 34.9778 35.6388 35.3196C35.2871 35.6539 34.8424 35.9363 34.3307 36.1502C33.4692 36.6133 32.0335 36.0804 31.7782 35.4556C31.5762 34.9557 31.0922 34.353 31.6081 33.7135C31.6526 33.6098 31.6635 33.5006 31.64 33.3937C31.6939 32.808 31.922 32.2362 32.31 31.7141C32.5048 31.3656 32.8385 31.0623 33.2725 30.8394C33.6152 30.6385 34.0397 30.5161 34.4874 30.4891C34.9351 30.4621 35.3839 30.5318 35.7718 30.6887C36.221 30.919 36.5555 31.2401 36.729 31.6075C37.0002 31.9934 36.729 32.4565 36.2451 32.4823C35.8728 32.4823 35.6176 32.5043 35.4049 32.0302C35.1124 31.376 34.3413 31.3245 33.7564 31.817C33.2155 32.2389 32.915 32.7823 32.9109 33.346C32.9008 33.4223 32.872 33.4968 32.8258 33.5665C32.4589 34.3015 32.9375 35.0586 33.7298 35.1211C33.9946 35.1365 34.2588 35.0877 34.4772 34.9831C34.6955 34.8785 34.8543 34.7245 34.9263 34.5478C35.256 33.9377 35.7292 34.0847 36.2451 34.0737Z" fill="#131313"/>
<path d="M84.8453 34.1072C85.0315 34.6548 84.622 34.9525 84.3455 35.276C83.718 36.011 82.9203 36.3565 81.9472 36.3308C81.1708 36.3087 80.3519 35.5957 80.2402 34.8607C80.2402 34.7614 80.1498 34.6695 80.1286 34.5703C80.077 34.4211 80.0537 34.2679 80.0594 34.1146C80.102 33.8426 80.203 33.5817 80.2562 33.3097C80.3825 32.5799 80.764 31.8823 81.3676 31.2772C81.5977 31.0107 81.9346 30.796 82.3376 30.659C82.7406 30.522 83.1923 30.4687 83.6382 30.5054C84.0466 30.5307 84.4317 30.648 84.7344 30.8392C85.037 31.0304 85.2404 31.285 85.3133 31.5639C85.4122 31.839 85.39 32.1282 85.2495 32.3945C84.9029 32.4678 84.5325 32.4678 84.1859 32.3945C84.1434 32.3945 84.0902 32.2438 84.069 32.1556C83.9413 31.5713 83.0905 31.2478 82.596 31.6227C81.8929 32.1113 81.4957 32.7713 81.4899 33.4604C81.4713 33.5618 81.4374 33.6615 81.3889 33.7581C81.3463 33.8647 81.2453 33.9896 81.2772 34.0741C81.3508 34.3285 81.4706 34.5755 81.6335 34.8092C82.0217 35.3127 83.165 35.1767 83.4734 34.6144C83.7818 34.0521 84.2444 33.9749 84.8453 34.1072Z" fill="#131313"/>
<path d="M114.424 30.5531H115.424C116.179 30.5531 116.78 31.1926 116.77 31.9423C116.816 32.5801 116.532 33.2085 115.967 33.7138C115.816 33.8389 115.625 33.9374 115.409 34.0014C115.192 34.0653 114.957 34.0927 114.722 34.0814C114.409 34.0814 114.089 34.0814 113.77 34.0814C113.345 34.0814 113.207 34.2614 113.159 34.6584C113.111 35.0553 112.999 35.4963 112.893 35.9117C112.873 35.9491 112.841 35.9828 112.798 36.0097C112.756 36.0366 112.704 36.0559 112.648 36.066C112.473 36.0876 112.293 36.0876 112.117 36.066C111.968 36.066 111.707 36.0035 111.691 35.9374C111.677 35.7295 111.696 35.5211 111.75 35.3163C111.75 35.1913 111.851 35.0774 111.872 34.9487C111.984 34.3239 112.063 33.6954 112.196 33.0743C112.329 32.4532 112.521 31.9166 112.638 31.3286C112.781 30.5935 112.813 30.5273 113.6 30.5273L114.424 30.5531ZM113.393 33.0559H114.552C115.084 33.0559 115.366 32.8465 115.461 32.4238C115.557 32.0011 115.493 31.7916 114.93 31.6005C114.584 31.4829 114.095 31.3543 113.866 31.7439C113.658 32.1718 113.5 32.6105 113.393 33.0559Z" fill="#131313"/>
<path d="M69.4561 36.0916C69.5358 35.533 69.3125 34.989 69.7007 34.5039C69.7066 34.4783 69.7066 34.4523 69.7007 34.4267C69.8761 33.4491 70.041 32.4678 70.2324 31.4865C70.2973 31.2171 70.4043 30.9534 70.5515 30.7C70.5806 30.6597 70.6244 30.6254 70.6784 30.6003C70.7325 30.5751 70.795 30.5601 70.8599 30.5566C71.8862 30.5566 72.9125 30.5566 73.9388 30.5566C74.226 30.5566 74.3323 30.711 74.343 30.9609C74.343 31.1337 74.343 31.3285 74.3004 31.56H72.0989C71.514 31.56 71.498 31.5857 71.4183 32.137C71.4183 32.2032 71.4183 32.2767 71.4183 32.3392C71.2853 32.8316 71.2853 32.8316 71.7958 32.8316C72.3063 32.8316 72.6839 32.8316 73.1252 32.8316C73.5666 32.8316 73.657 32.9493 73.5666 33.3058C73.54 33.4528 73.5347 33.5998 73.5134 33.7983H71.0141C70.9131 34.4414 70.8333 35.0442 70.7217 35.6359C70.6738 35.8895 70.5355 36.11 70.1899 36.1027C69.9825 36.088 69.7485 36.0916 69.4561 36.0916Z" fill="#131313"/>
<path d="M96.4362 36.0879C96.1262 36.099 95.8156 36.099 95.5056 36.0879C95.1866 36.0622 95.0962 35.8417 95.277 35.5697C95.277 35.5697 95.3089 35.5697 95.3089 35.5477C95.4205 35.0221 95.5641 34.4965 95.6279 33.9673C95.6016 33.7526 95.5281 33.5419 95.4099 33.3425C95.1919 32.7655 94.9632 32.1921 94.7505 31.6114C94.6708 31.3836 94.6123 31.1447 94.5591 30.9095C94.5591 30.8727 94.6016 30.8176 94.6282 30.7771C94.9047 30.4096 95.3142 30.564 95.6598 30.586C95.7768 30.586 95.9045 30.8837 95.9683 31.0638C96.1757 31.6151 96.3511 32.1664 96.5638 32.8059C96.8989 32.3097 97.2339 31.8797 97.4891 31.4093C97.7922 30.8506 98.3134 30.4978 98.9408 30.5603C99.0029 30.5727 99.06 30.5947 99.1079 30.6246C99.1558 30.6546 99.1932 30.6916 99.2173 30.733C99.2377 30.8356 99.2156 30.9401 99.1535 31.0344C98.7653 31.5894 98.3718 32.137 97.9624 32.6773C97.6699 33.0448 97.3349 33.4123 97.0531 33.8129C96.8978 34.0311 96.7903 34.2639 96.734 34.5039C96.617 35.0037 96.5426 35.5146 96.4362 36.0879Z" fill="#131313"/>
<path d="M58.3067 36.0913H57.5782C57.4399 36.0913 57.307 36.0692 57.0464 36.0472C57.1102 35.8524 57.1581 35.6796 57.2166 35.54C57.2166 35.4885 57.2857 35.4518 57.291 35.4003C57.3921 34.8049 57.4665 34.1985 57.5941 33.6068C57.7058 33.0702 57.876 32.5409 58.0302 32.0117C58.11 31.736 58.0302 31.5743 57.7377 31.5523C57.4453 31.5302 57.206 31.5523 56.9507 31.5523C56.7714 31.5373 56.5937 31.5139 56.4189 31.4824C56.5093 30.7474 56.8125 30.5305 57.4825 30.5489C58.4769 30.5746 59.4766 30.5489 60.471 30.5489C60.5933 30.5489 60.7528 30.5489 60.8273 30.604C60.9868 30.7363 61.274 30.8429 61.141 31.1296C61.0347 31.3575 60.9017 31.5853 60.572 31.5412C60.3774 31.5302 60.1817 31.5302 59.9871 31.5412C59.4075 31.5412 59.2054 31.7985 59.1203 32.3829C59.014 33.0922 58.8225 33.7905 58.6683 34.4925C58.546 35.0181 58.429 35.5326 58.3067 36.0913Z" fill="#131313"/>
<path d="M89.3325 34.8637C89.5237 34.938 89.7298 34.9925 89.944 35.0254C90.5236 35.0475 91.1033 35.0254 91.6882 35.0254C91.986 35.0254 92.0711 35.1614 92.0392 35.4334C91.9966 35.8009 91.7148 36.0839 91.3372 36.0839H88.3859C88.253 36.0839 88.12 36.0839 87.918 36.0619C87.9499 35.7642 87.9552 35.4959 88.0137 35.2386C88.12 34.7865 88.2583 34.3455 88.3806 33.9008C88.4125 33.7685 88.4178 33.6325 88.4444 33.4965C88.5455 32.8717 88.6412 32.2432 88.7582 31.6221C88.806 31.3869 88.9177 31.1627 88.9709 30.9275C88.988 30.8667 89.0224 30.8088 89.0722 30.7573C89.122 30.7058 89.1862 30.6616 89.2609 30.6274C89.3356 30.5932 89.4195 30.5696 89.5076 30.558C89.5956 30.5465 89.6861 30.5471 89.7738 30.5599C90.0344 30.6224 90.4173 30.7915 90.2152 31.0708C89.8111 31.6405 90.2152 32.3535 89.7738 32.9085C89.6941 33.004 89.7738 33.2062 89.7313 33.3495C89.6196 33.8126 89.492 34.2573 89.3325 34.8637Z" fill="#131313"/>
<path d="M117.38 36.0917C116.689 36.0917 116.62 35.9777 116.95 35.3566C116.971 35.3199 116.987 35.2817 116.998 35.2427C117.099 34.6142 117.168 33.9747 117.295 33.3499C117.396 32.8795 117.588 32.4274 117.705 31.957C117.779 31.6666 117.79 31.3652 117.827 31.0675C117.817 30.9893 117.833 30.9104 117.875 30.8374C117.917 30.7644 117.984 30.6994 118.07 30.6477C118.156 30.5961 118.258 30.5592 118.368 30.5401C118.478 30.5211 118.594 30.5205 118.704 30.5383C119.114 30.5677 119.13 30.825 119.055 31.119C118.912 31.7034 118.752 32.2804 118.609 32.8611C118.609 32.953 118.609 33.0522 118.609 33.1441C118.456 33.8424 118.3 34.5407 118.141 35.239C118.123 35.3046 118.111 35.3709 118.104 35.4375C118.013 36.0953 118.013 36.0953 117.38 36.0917Z" fill="#131313"/>
<path d="M54.6696 36.0909C54.3969 36.1017 54.1234 36.1017 53.8507 36.0909C53.5423 36.0725 53.4519 35.8667 53.5635 35.569C53.6433 35.3705 53.6805 35.161 53.7337 34.9552C53.8932 34.29 54.0687 33.6284 54.2176 32.9595C54.3452 32.3715 54.4729 31.7797 54.5313 31.1843C54.5633 30.8793 54.7121 30.6478 54.9249 30.5963C55.1376 30.5448 55.5842 30.4125 55.8235 30.769C55.8431 30.797 55.8747 30.8201 55.9139 30.8352C55.8608 31.0116 55.8076 31.1513 55.765 31.2983C55.6215 31.8385 55.4726 32.3788 55.3343 32.9228C55.3343 32.9999 55.3343 33.0845 55.3024 33.1653C55.2014 33.8122 55.1163 34.4627 54.9887 35.1022C54.9249 35.4146 54.7919 35.7197 54.6696 36.0909Z" fill="#131313"/>
<path d="M86.1365 36.0911C85.5728 36.0911 85.5144 36.0617 85.6048 35.5141C85.7217 34.8489 85.9185 34.1947 86.0727 33.5331C86.0993 33.4155 86.0727 33.2869 86.1153 33.1656C86.2163 32.5812 86.3067 31.9932 86.429 31.4125C86.4914 31.1793 86.5785 30.9496 86.6896 30.7252C86.7853 30.5084 87.3755 30.4532 87.6521 30.648C87.7903 30.7473 88.1838 30.8392 87.7212 31.056C87.6946 31.056 87.6893 31.1295 87.684 31.1699C87.5936 31.8315 87.5244 32.4967 87.3968 33.1546C87.3117 33.5809 87.115 33.9852 87.0086 34.4079C86.9435 34.7159 86.908 35.0265 86.9023 35.3377C86.8757 35.9735 86.764 36.0911 86.1365 36.0911Z" fill="#131313"/>
<path d="M66.3838 37.278C66.3307 37.0575 66.3466 36.9104 66.6338 36.8333C66.9209 36.7561 67.1655 36.5245 67.107 36.1239L66.6338 36.0578C66.7029 35.7454 66.7614 35.444 66.8412 35.15C66.8548 35.121 66.88 35.0953 66.9139 35.0758C66.9477 35.0563 66.9889 35.0438 67.0326 35.0397C67.3075 35.0169 67.586 35.0256 67.8568 35.0655C67.9419 35.0655 68.0749 35.308 68.0483 35.3999C67.926 35.8115 67.7558 36.2121 67.591 36.6127C67.4261 37.0134 66.7986 37.3662 66.3838 37.278Z" fill="#131313"/>
<path d="M45.5668 30.2584C45.4445 29.4793 46.5718 28.7883 47.4705 29.1154C46.9228 29.6593 46.4708 30.2878 45.5668 30.2584Z" fill="#131313"/>
<path d="M77.188 30.2224C77.6719 29.05 78.1505 28.8368 79.2193 29.1198C78.5706 29.5792 78.1824 30.3547 77.188 30.2224Z" fill="#131313"/>
<path d="M110.862 29.116C110.277 29.6746 109.798 30.3398 108.868 30.2186C109.197 29.2299 109.915 28.8219 110.862 29.116Z" fill="#131313"/>
</svg>
